<?xml version="1.0" encoding="utf-8"?>
<!-- Generator: Adobe Illustrator 27.5.0, SVG Export Plug-In . SVG Version: 6.00 Build 0)  -->
<svg version="1.1" xmlns="http://www.w3.org/2000/svg" xmlns:xlink="http://www.w3.org/1999/xlink" x="0px" y="0px"
	 viewBox="0 0 3710 3710" style="enable-background:new 0 0 3710 3710;" xml:space="preserve">
<g id="Background">
	<g>
		<g>
			<rect style="fill:#FFFFFF;" width="3710" height="3710"/>
		</g>
	</g>
</g>
<g id="Illustration">
	<g>
		<linearGradient id="SVGID_1_" gradientUnits="userSpaceOnUse" x1="3608.8127" y1="4067.7476" x2="1126.7258" y2="985.1513">
			<stop  offset="0" style="stop-color:#DAE3FE"/>
			<stop  offset="1" style="stop-color:#E9EFFD"/>
		</linearGradient>
		<path style="fill:url(#SVGID_1_);" d="M2925.975,2852.083c-57.013,60.021-110.957,98.727-153.578,129.308
			c-500.998,359.472-1093.811,254.688-1219.801,229.098c-186.047-37.787-545.672-110.829-805.674-416.586
			c-393.362-462.585-332.11-1191.376-26.992-1672.461c55.811-87.999,350.62-576.411,949.819-654.737
			c362.628-47.402,785.337,48.202,1091.45,304.665C3403.759,1309.707,3358.016,2397.244,2925.975,2852.083z"/>
		<g>
			<g>
				<g style="opacity:0.3;">
					<path style="fill:#91B3FA;" d="M2778.087,666.44c-2.092-3.067-1.572-7.284,1.324-9.736c6.33-5.366,12.989-10.535,19.789-15.366
						c3.308-2.35,7.895-1.575,10.245,1.732c0.027,0.04,0.054,0.079,0.081,0.118c2.25,3.298,1.454,7.804-1.815,10.126
						c-6.461,4.589-12.785,9.501-18.799,14.597c-3.094,2.623-7.732,2.242-10.355-0.855
						C2778.387,666.859,2778.232,666.651,2778.087,666.44z M2831.225,630.766c-0.162-0.237-0.312-0.487-0.448-0.749
						c-1.877-3.597-0.483-8.036,3.114-9.913c7.389-3.854,15.016-7.431,22.669-10.63c3.744-1.565,8.03,0.192,9.614,3.944
						c1.564,3.744-0.204,8.047-3.945,9.611c-7.274,3.041-14.519,6.439-21.541,10.104
						C2837.351,634.873,2833.294,633.799,2831.225,630.766z M2890.896,607.678c-0.461-0.676-0.816-1.441-1.036-2.277
						c-1.027-3.925,1.319-7.941,5.243-8.97c8.044-2.111,16.281-3.896,24.482-5.308c4-0.686,7.795,2,8.487,5.994
						c0.688,3.998-1.996,7.799-5.994,8.487c-7.788,1.34-15.608,3.036-23.248,5.04
						C2895.743,611.453,2892.597,610.172,2890.896,607.678z M2954.244,598.512c-0.762-1.117-1.224-2.456-1.269-3.907
						c-0.126-4.055,3.061-7.444,7.115-7.57c8.319-0.256,16.749-0.156,25.054,0.297c4.048,0.225,7.152,3.686,6.935,7.737
						c-0.221,4.05-3.686,7.155-7.737,6.935c-7.888-0.431-15.895-0.527-23.8-0.281
						C2957.939,601.801,2955.611,600.516,2954.244,598.512z M3018.044,603.702c-1.068-1.566-1.533-3.541-1.141-5.548
						c0.777-3.983,4.636-6.581,8.617-5.802c8.148,1.591,16.344,3.554,24.355,5.836c3.903,1.108,6.168,5.172,5.055,9.076
						c-1.111,3.902-5.174,6.165-9.078,5.055c-7.615-2.17-15.404-4.035-23.147-5.548
						C3020.73,606.386,3019.095,605.242,3018.044,603.702z M3079.104,622.875c-1.383-2.028-1.721-4.702-0.656-7.113
						c1.64-3.712,5.976-5.391,9.688-3.754c7.606,3.359,15.165,7.086,22.461,11.081c3.561,1.95,4.865,6.413,2.916,9.973
						c-1.946,3.558-6.412,4.864-9.971,2.916c-6.934-3.795-14.113-7.337-21.341-10.528
						C3080.899,624.875,3079.85,623.969,3079.104,622.875z M3245.257,835.407c-0.573-0.84-0.979-1.812-1.165-2.879
						c-1.352-7.776-3.061-15.599-5.083-23.248c-1.036-3.922,1.303-7.943,5.224-8.978c3.923-1.038,7.943,1.302,8.98,5.225
						c2.129,8.056,3.931,16.294,5.356,24.483c0.695,3.998-1.983,7.802-5.98,8.496
						C3249.658,839.017,3246.831,837.714,3245.257,835.407z M3134.36,655.081c-1.717-2.518-1.743-5.948,0.178-8.528
						c2.424-3.255,7.026-3.928,10.281-1.505c6.67,4.966,13.205,10.284,19.424,15.805c3.021,2.707,3.313,7.336,0.618,10.372
						c-2.693,3.034-7.337,3.31-10.373,0.616c-5.905-5.244-12.111-10.293-18.444-15.009
						C3135.371,656.33,3134.807,655.737,3134.36,655.081z M3227.256,773.993c-0.273-0.401-0.513-0.833-0.708-1.298
						c-3.06-7.281-6.477-14.526-10.15-21.535c-1.883-3.595-0.496-8.035,3.096-9.918c3.594-1.882,8.049-0.509,9.918,3.097
						c3.864,7.375,7.459,14.999,10.681,22.66c1.572,3.741-0.186,8.049-3.925,9.62
						C3232.894,777.996,3229.184,776.819,3227.256,773.993z M3181.036,698.824c-2.089-3.063-1.574-7.272,1.313-9.727
						c3.091-2.63,7.726-2.255,10.358,0.834c5.383,6.327,10.565,12.972,15.399,19.753c0.031,0.041,0.062,0.085,0.091,0.127
						c2.246,3.293,1.456,7.792-1.803,10.118c-3.304,2.357-7.892,1.59-10.247-1.715c-4.594-6.439-9.517-12.75-14.632-18.761
						C3181.344,699.248,3181.183,699.038,3181.036,698.824z"/>
					<path style="fill:#91B3FA;" d="M3249.459,886.823c-0.815-1.195-1.288-2.642-1.274-4.199c0.035-3.788-0.011-7.639-0.129-11.449
						c-0.129-4.054,3.055-7.448,7.109-7.575c4.055-0.13,7.453,3.053,7.574,7.111c0.128,4.007,0.174,8.057,0.139,12.043
						c-0.037,4.056-3.356,7.318-7.411,7.28C3252.965,890.013,3250.769,888.743,3249.459,886.823z"/>
				</g>
				<g style="opacity:0.3;">
					<path style="fill:#91B3FA;" d="M3160.142,1092.223c-1.998-2.929-1.633-6.956,1.025-9.471c2.752-2.601,5.496-5.305,8.154-8.035
						c2.831-2.907,7.482-2.969,10.389-0.139c2.919,2.843,2.968,7.483,0.139,10.389c-2.799,2.873-5.688,5.721-8.585,8.462
						c-2.948,2.787-7.598,2.657-10.386-0.29C3160.604,1092.849,3160.36,1092.542,3160.142,1092.223z"/>
					<path style="fill:#91B3FA;" d="M2727.172,1045.968c-1.905-2.792-3.77-5.628-5.594-8.506c-2.171-3.427-1.155-7.966,2.272-10.139
						c3.427-2.172,7.989-1.147,10.139,2.27c4.21,6.641,8.68,13.096,13.341,19.256c2.445,3.243,1.81,7.843-1.425,10.291
						c-3.238,2.45-7.846,1.811-10.293-1.425C2732.729,1053.905,2729.89,1049.952,2727.172,1045.968z M2703.099,1003.361
						c-0.231-0.339-0.438-0.703-0.615-1.09c-3.413-7.452-6.547-15.133-9.315-22.827c-1.374-3.817,0.607-8.026,4.423-9.399
						c3.819-1.373,8.04,0.609,9.4,4.426c2.63,7.308,5.609,14.603,8.85,21.686c1.689,3.688,0.068,8.048-3.62,9.736
						C2708.919,1007.405,2705.079,1006.264,2703.099,1003.361z M2761.02,1086.854c-1.952-2.861-1.658-6.794,0.881-9.331
						c2.872-2.868,7.523-2.864,10.391,0.007c5.484,5.493,11.278,10.824,17.226,15.847c3.096,2.623,3.49,7.254,0.872,10.353
						c-2.62,3.1-7.255,3.49-10.355,0.871c-6.262-5.29-12.365-10.906-18.141-16.689
						C2761.565,1087.582,2761.274,1087.226,2761.02,1086.854z M2683.342,943.543c-0.526-0.771-0.91-1.655-1.115-2.623
						c-1.69-8.013-3.058-16.195-4.065-24.318c-0.499-4.026,2.36-7.694,6.385-8.193c4.029-0.5,7.697,2.356,8.195,6.386
						c0.957,7.712,2.255,15.482,3.861,23.092c0.839,3.969-1.702,7.867-5.672,8.704
						C2687.931,947.224,2684.969,945.929,2683.342,943.543z M2810.157,1126.192c-1.601-2.347-1.756-5.517-0.139-8.072
						c2.17-3.429,6.708-4.45,10.138-2.28c6.554,4.149,13.38,8.075,20.287,11.671c3.599,1.873,4.999,6.31,3.123,9.91
						c-1.874,3.598-6.309,4.995-9.907,3.121c-7.272-3.785-14.458-7.918-21.36-12.287
						C2811.424,1127.703,2810.705,1126.995,2810.157,1126.192z M2866.737,1153.795c-1.28-1.876-1.675-4.318-0.852-6.62
						c1.368-3.82,5.573-5.808,9.394-4.44c7.326,2.622,14.848,4.967,22.356,6.969c3.922,1.04,6.254,5.063,5.208,8.99
						c-1.046,3.921-5.07,6.251-8.991,5.208c-7.901-2.106-15.816-4.573-23.525-7.334
						C2868.809,1156.024,2867.581,1155.033,2866.737,1153.795z M2927.989,1168.408c-0.973-1.427-1.45-3.2-1.218-5.05
						c0.502-4.025,4.175-6.881,8.201-6.377c7.729,0.967,15.58,1.619,23.341,1.935c4.052,0.166,7.206,3.581,7.04,7.641
						c-0.167,4.053-3.586,7.205-7.641,7.04c-8.166-0.335-16.431-1.019-24.563-2.036
						C2930.971,1171.287,2929.135,1170.089,2927.989,1168.408z M2990.965,1169.314c-0.675-0.989-1.116-2.155-1.239-3.431
						c-0.389-4.038,2.569-7.626,6.607-8.016c7.749-0.746,15.55-1.831,23.192-3.227c3.991-0.729,7.82,1.921,8.548,5.905
						c0.729,3.992-1.916,7.819-5.907,8.547c-8.05,1.47-16.267,2.614-24.423,3.399
						C2994.978,1172.757,2992.426,1171.456,2990.965,1169.314z M3052.628,1156.368c-0.379-0.556-0.687-1.175-0.908-1.846
						c-1.27-3.853,0.825-8.007,4.678-9.275c7.374-2.43,14.741-5.207,21.901-8.256c3.734-1.59,8.051,0.16,9.637,3.881
						c1.591,3.733-0.148,8.049-3.881,9.639c-7.537,3.21-15.293,6.134-23.057,8.691
						C3057.815,1160.249,3054.426,1159.004,3052.628,1156.368z M3109.901,1130.209c-0.085-0.125-0.166-0.253-0.245-0.384
						c-2.078-3.484-0.938-7.994,2.547-10.071c4.919-2.933,9.805-6.053,14.527-9.274c1.709-1.166,3.402-2.35,5.077-3.547
						c3.303-2.359,7.892-1.595,10.249,1.707c2.453,3.296,1.595,7.889-1.705,10.247c-1.763,1.26-3.542,2.503-5.341,3.73
						c-4.967,3.388-10.109,6.671-15.283,9.755C3116.375,1134.373,3112.072,1133.391,3109.901,1130.209z"/>
					<path style="fill:#91B3FA;" d="M2677.249,880.667c-0.823-1.207-1.296-2.668-1.275-4.237c0.055-3.977,0.196-8.028,0.419-12.041
						c0.224-4.052,3.689-7.155,7.74-6.93c4.052,0.225,7.155,3.685,6.93,7.74c-0.21,3.812-0.344,7.66-0.397,11.436
						c-0.055,4.055-3.389,7.299-7.447,7.243C2680.731,883.842,2678.551,882.575,2677.249,880.667z"/>
				</g>
				<g>
					<path style="fill:#91B3FA;" d="M2753.228,840.837c-0.416,1.404,0.106,2.919,1.298,3.769l34.018,24.273
						c-1.124,19.484,0.85,39.287,6.161,58.657l-28.192,30.812c-0.99,1.081-1.183,2.67-0.484,3.957l23.931,44.046
						c0.7,1.287,2.139,1.988,3.583,1.748l41.192-6.886c13.361,14.996,28.9,27.429,45.859,37.088l1.853,41.75
						c0.065,1.463,1.051,2.724,2.456,3.14l48.067,14.224c1.406,0.416,2.919-0.106,3.769-1.298l24.273-34.018
						c19.484,1.124,39.288-0.851,58.657-6.162l30.812,28.193c1.081,0.989,2.669,1.183,3.957,0.484l44.047-23.931
						c1.287-0.699,1.989-2.138,1.747-3.583l-6.886-41.192c14.996-13.361,27.429-28.9,37.088-45.858l41.75-1.853
						c1.462-0.065,2.724-1.051,3.14-2.456l14.223-48.067c0.417-1.405-0.106-2.919-1.298-3.769l-34.019-24.273
						c1.125-19.484-0.85-39.288-6.161-58.657l28.193-30.812c0.989-1.08,1.183-2.669,0.484-3.957l-23.932-44.046
						c-0.699-1.287-2.138-1.989-3.583-1.747l-41.192,6.886c-13.36-14.996-28.901-27.43-45.859-37.089l-1.853-41.749
						c-0.064-1.464-1.052-2.725-2.456-3.141l-48.067-14.223c-1.405-0.416-2.918,0.106-3.769,1.298l-24.273,34.018
						c-19.484-1.124-39.288,0.851-58.657,6.162l-30.812-28.193c-1.08-0.989-2.67-1.183-3.957-0.483l-44.046,23.93
						c-1.287,0.7-1.989,2.138-1.748,3.583l6.886,41.192c-14.995,13.361-27.429,28.9-37.088,45.858l-41.75,1.854
						c-1.464,0.065-2.724,1.051-3.14,2.456L2753.228,840.837z"/>
					
						<linearGradient id="SVGID_00000062161839509907615620000016023543029526104224_" gradientUnits="userSpaceOnUse" x1="2921.0239" y1="879.2548" x2="3021.7769" y2="879.2548">
						<stop  offset="0" style="stop-color:#DAE3FE"/>
						<stop  offset="1" style="stop-color:#E9EFFD"/>
					</linearGradient>
					<path style="fill:url(#SVGID_00000062161839509907615620000016023543029526104224_);" d="M2929.742,907.624
						c-13.841-20.291-11.095-48.271,7.485-65.408c20.426-18.837,52.364-17.544,71.2,2.879c9.128,9.893,13.852,22.75,13.307,36.195
						c-0.543,13.448-6.291,25.88-16.186,35.003c-20.426,18.837-52.364,17.544-71.2-2.879
						C2932.651,911.573,2931.114,909.635,2929.742,907.624z M3003.354,857.548c-1.069-1.567-2.257-3.065-3.567-4.485
						c-14.441-15.659-38.932-16.648-54.59-2.208c-15.659,14.443-16.66,38.933-2.208,54.591c14.44,15.659,38.931,16.648,54.59,2.208
						c7.587-6.997,11.994-16.527,12.411-26.839C3010.327,872.436,3007.996,864.353,3003.354,857.548z"/>
					
						<linearGradient id="SVGID_00000145775409881589119610000006493864092720651403_" gradientUnits="userSpaceOnUse" x1="2853.3708" y1="879.5117" x2="3096.3845" y2="879.5117">
						<stop  offset="0" style="stop-color:#DAE3FE"/>
						<stop  offset="1" style="stop-color:#E9EFFD"/>
					</linearGradient>
					<path style="fill:url(#SVGID_00000145775409881589119610000006493864092720651403_);" d="M2870.203,949.486
						c-2.377-3.485-4.593-7.109-6.635-10.866l0,0c-0.643-1.182-1.266-2.376-1.871-3.578c-2.98-5.931-5.482-12.09-7.471-18.382
						c-0.027-0.086-0.054-0.171-0.082-0.257c-0.076-0.243-0.152-0.487-0.225-0.732c-0.146-0.475-0.288-0.952-0.428-1.427
						c-0.368-1.253,0.137-2.555,1.16-3.254c0.249-0.17,0.529-0.304,0.833-0.393c1.557-0.457,3.186,0.439,3.645,1.993
						c2.351,8.014,5.582,15.827,9.603,23.223c19.959,36.75,56.742,58.65,95.656,61.37c21.644,1.516,43.948-2.906,64.386-14.011
						c3.584-1.946,7.044-4.06,10.367-6.328c22.368-15.262,38.67-37.567,46.457-63.882c8.946-30.228,5.583-62.131-9.465-89.829
						c-31.086-57.202-102.864-78.425-160.042-47.359c-3.526,1.915-6.941,4.002-10.233,6.25
						c-14.267,9.736-26.246,22.486-35.031,37.377c-0.228,0.385-0.528,0.698-0.875,0.934c-0.91,0.621-2.137,0.702-3.149,0.104
						c-1.396-0.829-1.867-2.624-1.037-4.025c9.223-15.633,21.799-29.021,36.778-39.242c3.456-2.359,7.04-4.549,10.74-6.56
						c60.031-32.617,135.408-10.294,168.013,49.716c15.8,29.079,19.327,62.569,9.937,94.303
						c-8.173,27.627-25.289,51.042-48.77,67.065c-3.49,2.38-7.121,4.599-10.882,6.643c-29.081,15.799-62.572,19.329-94.305,9.939
						C2909.644,990.098,2886.225,972.975,2870.203,949.486z"/>
				</g>
			</g>
			<g>
				<g style="opacity:0.3;">
					<path style="fill:#91B3FA;" d="M2476.875,568.436c-1.106-1.622-1.067-3.837,0.242-5.432c2.441-2.979,5.007-5.926,7.625-8.755
						c1.701-1.839,4.57-1.951,6.412-0.249c1.849,1.697,1.95,4.573,0.249,6.412c-2.495,2.696-4.94,5.504-7.271,8.347
						c-1.586,1.937-4.445,2.219-6.385,0.633C2477.404,569.108,2477.114,568.786,2476.875,568.436z"/>
					<path style="fill:#91B3FA;" d="M2501.387,543.586c-1.296-1.9-0.969-4.51,0.827-6.022c5.071-4.275,10.421-8.337,15.897-12.073
						c1.153-0.787,2.319-1.563,3.495-2.331c2.103-1.367,4.91-0.611,6.282,1.323c1.368,2.1,0.774,4.91-1.322,6.279
						c-1.125,0.733-2.24,1.474-3.342,2.226c-5.224,3.563-10.326,7.438-15.163,11.513c-1.917,1.616-4.777,1.371-6.394-0.543
						C2501.568,543.836,2501.473,543.713,2501.387,543.586z M2540.861,517.866c-0.121-0.177-0.234-0.366-0.331-0.563
						c-1.102-2.252-0.172-4.971,2.079-6.074c7.219-3.54,14.722-6.663,22.297-9.28c2.369-0.82,4.953,0.451,5.771,2.806
						c0.818,2.371-0.437,4.951-2.806,5.77c-7.227,2.497-14.383,5.477-21.269,8.852
						C2544.551,520.383,2542.112,519.7,2540.861,517.866z M2585.392,502.486c-0.324-0.476-0.562-1.021-0.691-1.618
						c-0.519-2.451,1.052-4.859,3.503-5.377c7.854-1.657,15.901-2.844,23.91-3.518c2.5-0.212,4.689,1.637,4.902,4.142
						c0.211,2.495-1.644,4.691-4.139,4.902c-7.639,0.644-15.308,1.771-22.799,3.355
						C2588.226,504.761,2586.397,503.96,2585.392,502.486z M2632.344,498.525c-0.53-0.776-0.821-1.722-0.785-2.731
						c0.1-2.504,2.211-4.456,4.715-4.356c8.038,0.318,16.122,1.138,24.036,2.439c2.472,0.408,4.143,2.747,3.739,5.214
						c-0.405,2.473-2.738,4.147-5.214,3.742c-7.541-1.241-15.257-2.023-22.919-2.327
						C2634.421,500.447,2633.126,499.672,2632.344,498.525z M2678.837,506.151c-0.739-1.084-1.005-2.479-0.606-3.838
						c0.704-2.403,3.225-3.779,5.631-3.077c7.707,2.263,15.349,5.021,22.71,8.201c2.307,0.991,3.362,3.663,2.368,5.964
						s-3.666,3.361-5.964,2.368c-7.026-3.033-14.314-5.665-21.669-7.822C2680.26,507.639,2679.408,506.987,2678.837,506.151z
						 M2722.066,524.827c-0.958-1.404-1.082-3.293-0.165-4.857c1.268-2.16,4.047-2.881,6.209-1.615
						c6.926,4.067,13.664,8.605,20.021,13.489c1.988,1.538,2.358,4.377,0.833,6.364c-1.525,1.987-4.376,2.36-6.361,0.834
						c-6.063-4.658-12.484-8.983-19.087-12.86C2722.917,525.832,2722.432,525.364,2722.066,524.827z M2759.406,553.499
						c-1.198-1.757-1.028-4.172,0.521-5.74c1.76-1.783,4.634-1.802,6.418-0.042c5.698,5.624,11.116,11.68,16.108,17.999
						c1.523,1.997,1.215,4.825-0.752,6.375c-1.966,1.553-4.819,1.217-6.373-0.748c-4.758-6.031-9.927-11.807-15.359-17.168
						C2759.755,553.964,2759.568,553.737,2759.406,553.499z M2799.581,611.371c-0.147-0.216-0.28-0.45-0.391-0.699
						c-2.715-6.033-5.808-12.022-9.195-17.804c-0.508-0.879-1.017-1.735-1.536-2.583c-1.301-2.143-0.624-4.933,1.518-6.236
						c2.144-1.309,5.004-0.654,6.236,1.515c0.549,0.907,1.094,1.815,1.626,2.737c3.536,6.042,6.779,12.32,9.625,18.647
						c1.028,2.286,0.011,4.97-2.275,5.999C2803.154,613.864,2800.799,613.156,2799.581,611.371z"/>
				</g>
				<g style="opacity:0.3;">
					<path style="fill:#91B3FA;" d="M2468.324,799.919c-1.396-2.046-0.89-4.843,1.145-6.271c2.05-1.438,4.882-0.943,6.319,1.109
						c4.332,6.177,9.077,12.142,14.105,17.729c1.649,1.866,1.528,4.732-0.337,6.409c-1.865,1.677-4.733,1.523-6.409-0.337
						c-5.27-5.862-10.248-12.113-14.788-18.588C2468.348,799.954,2468.335,799.935,2468.324,799.919z M2456.161,780.147
						c-0.093-0.136-0.176-0.274-0.255-0.421c-3.731-6.963-7.075-14.224-9.942-21.58c-0.907-2.337,0.244-4.965,2.58-5.874
						c2.338-0.914,4.967,0.259,5.878,2.577c2.734,7.02,5.926,13.948,9.484,20.594c1.184,2.207,0.351,4.958-1.857,6.14
						C2459.982,782.689,2457.45,782.036,2456.161,780.147z M2499.323,834.352c-1.134-1.662-1.057-3.94,0.324-5.532
						c1.64-1.889,4.506-2.092,6.398-0.449c5.703,4.947,11.75,9.589,17.983,13.796c2.075,1.414,2.624,4.223,1.219,6.3
						c-1.4,2.076-4.223,2.624-6.3,1.222c-6.533-4.411-12.874-9.279-18.848-14.467
						C2499.796,834.959,2499.537,834.667,2499.323,834.352z M2439.359,736.942c-0.291-0.426-0.514-0.91-0.65-1.439
						c-1.948-7.661-3.442-15.52-4.437-23.356c-0.317-2.486,1.443-4.758,3.929-5.075c2.479-0.313,4.752,1.446,5.072,3.929
						c0.951,7.472,2.376,14.962,4.231,22.268c0.616,2.428-0.852,4.899-3.28,5.515
						C2442.327,739.265,2440.403,738.472,2439.359,736.942z M2537.722,860.268c-0.905-1.327-1.077-3.096-0.295-4.623
						c1.141-2.235,3.875-3.118,6.106-1.979c6.704,3.427,13.688,6.478,20.764,9.067c2.358,0.861,3.563,3.47,2.701,5.823
						c-0.862,2.353-3.47,3.563-5.823,2.701c-7.417-2.718-14.741-5.915-21.772-9.506
						C2538.702,861.391,2538.135,860.873,2537.722,860.268z M2581.219,876.216c-0.693-1.016-0.972-2.306-0.671-3.595
						c0.573-2.44,3.014-3.955,5.454-3.383c7.35,1.723,14.867,3.016,22.34,3.843c2.494,0.275,4.289,2.521,4.012,5.009
						c-0.275,2.491-2.516,4.285-5.005,4.01c-7.837-0.866-15.717-2.219-23.418-4.025
						C2582.781,877.806,2581.836,877.12,2581.219,876.216z M2627.289,881.286c-0.487-0.714-0.778-1.572-0.785-2.503
						c-0.03-2.506,1.979-4.561,4.486-4.589c7.546-0.081,15.153-0.63,22.607-1.631c2.479-0.329,4.767,1.412,5.098,3.895
						c0.333,2.484-1.409,4.767-3.896,5.1c-7.816,1.046-15.794,1.624-23.709,1.713
						C2629.512,883.287,2628.115,882.497,2627.289,881.286z"/>
					<path style="fill:#91B3FA;" d="M2433.492,690.749c-0.493-0.723-0.783-1.596-0.787-2.537c-0.016-3.884,0.086-7.785,0.295-11.597
						c0.14-2.501,2.28-4.419,4.782-4.282c2.497,0.145,4.415,2.28,4.281,4.782c-0.202,3.635-0.297,7.358-0.284,11.064
						c0.01,2.506-2.016,4.545-4.521,4.554C2435.696,692.737,2434.313,691.951,2433.492,690.749z"/>
				</g>
				<g>
					<path style="fill:#91B3FA;" d="M2484.042,660.832c-0.278,0.94,0.071,1.953,0.868,2.522l22.764,16.243
						c-0.752,13.037,0.569,26.289,4.123,39.25l-18.865,20.618c-0.662,0.723-0.792,1.786-0.324,2.648l16.013,29.474
						c0.469,0.861,1.431,1.331,2.398,1.169l27.564-4.608c8.941,10.035,19.339,18.355,30.687,24.818l1.24,27.937
						c0.044,0.979,0.704,1.823,1.644,2.101l32.164,9.518c0.94,0.278,1.953-0.071,2.522-0.869l16.243-22.763
						c13.038,0.753,26.29-0.569,39.251-4.123l20.618,18.866c0.723,0.662,1.786,0.792,2.648,0.324l29.474-16.014
						c0.862-0.468,1.331-1.431,1.169-2.397l-4.608-27.564c10.035-8.94,18.354-19.339,24.817-30.686l27.938-1.24
						c0.979-0.044,1.823-0.703,2.101-1.643l9.518-32.165c0.278-0.94-0.071-1.953-0.868-2.522l-22.764-16.243
						c0.753-13.038-0.569-26.289-4.123-39.251l18.866-20.618c0.661-0.723,0.792-1.786,0.324-2.648l-16.014-29.474
						c-0.468-0.861-1.43-1.331-2.397-1.169l-27.564,4.608c-8.94-10.035-19.339-18.355-30.687-24.818l-1.24-27.936
						c-0.043-0.98-0.704-1.824-1.643-2.101l-32.164-9.518c-0.94-0.278-1.953,0.07-2.522,0.869l-16.243,22.763
						c-13.038-0.752-26.289,0.57-39.25,4.123l-20.618-18.866c-0.722-0.661-1.786-0.792-2.647-0.323l-29.473,16.013
						c-0.862,0.468-1.331,1.431-1.17,2.398l4.608,27.564c-10.034,8.94-18.354,19.338-24.818,30.686l-27.937,1.24
						c-0.979,0.044-1.823,0.703-2.101,1.643L2484.042,660.832z"/>
					
						<linearGradient id="SVGID_00000117664448056077944980000009679960251925818041_" gradientUnits="userSpaceOnUse" x1="2595.7014" y1="686.5483" x2="2664.3267" y2="686.5483">
						<stop  offset="0" style="stop-color:#DAE3FE"/>
						<stop  offset="1" style="stop-color:#E9EFFD"/>
					</linearGradient>
					<path style="fill:url(#SVGID_00000117664448056077944980000009679960251925818041_);" d="M2601.626,705.824
						c-4.125-6.047-6.197-13.227-5.896-20.673c0.371-9.16,4.287-17.627,11.028-23.842c13.906-12.828,35.661-11.949,48.496,1.96
						c12.823,13.953,11.949,35.673-1.962,48.501c-6.739,6.217-15.496,9.436-24.654,9.064c-9.161-0.369-17.631-4.285-23.845-11.028
						C2603.632,708.546,2602.574,707.214,2601.626,705.824z M2650.891,672.323c-0.688-1.009-1.457-1.978-2.307-2.903
						c-9.441-10.231-25.442-10.877-35.676-1.44c-4.955,4.571-7.84,10.8-8.11,17.536c-0.272,6.741,2.101,13.176,6.667,18.139l0,0
						c4.572,4.956,10.802,7.838,17.538,8.111c6.74,0.272,13.181-2.096,18.14-6.67C2656.45,696.514,2657.826,682.49,2650.891,672.323
						z"/>
					
						<linearGradient id="SVGID_00000093141794669435599840000003023570802443545775_" gradientUnits="userSpaceOnUse" x1="2548.4824" y1="686.6572" x2="2716.2385" y2="686.6572">
						<stop  offset="0" style="stop-color:#DAE3FE"/>
						<stop  offset="1" style="stop-color:#E9EFFD"/>
					</linearGradient>
					<path style="fill:url(#SVGID_00000093141794669435599840000003023570802443545775_);" d="M2560.146,734.909
						c-1.618-2.372-3.128-4.845-4.529-7.418c-2.779-5.112-5.042-10.512-6.727-16.065c-0.074-0.25-0.148-0.5-0.222-0.75
						c-0.569-1.935,0.211-3.944,1.791-5.025c0.384-0.262,0.817-0.469,1.286-0.607c2.404-0.706,4.916,0.68,5.629,3.077
						c1.524,5.199,3.617,10.256,6.215,15.033l0.001,0.002c0.142,0.263,0.289,0.524,0.433,0.783
						c6.253,11.25,15.073,20.515,25.661,27.23c5.748,3.645,12.022,6.536,18.698,8.578c0.054,0.017,0.108,0.033,0.163,0.05
						c0.168,0.049,0.332,0.101,0.498,0.148c19.569,5.789,40.222,3.614,58.153-6.129c2.322-1.259,4.559-2.627,6.711-4.095
						c14.48-9.88,25.033-24.321,30.077-41.358c5.789-19.569,3.61-40.22-6.132-58.149c-9.743-17.915-25.885-30.995-45.452-36.789
						c-19.569-5.789-40.222-3.614-58.153,6.129c-2.282,1.238-4.493,2.59-6.623,4.043c-9.238,6.305-16.992,14.557-22.678,24.196
						c-0.351,0.594-0.814,1.079-1.35,1.442c-1.406,0.959-3.3,1.084-4.863,0.161c-2.155-1.279-2.877-4.053-1.601-6.216
						c6.363-10.785,15.039-20.021,25.37-27.074c2.387-1.628,4.858-3.14,7.41-4.526c20.065-10.901,43.169-13.335,65.065-6.856
						c21.891,6.48,39.958,21.076,50.85,41.156c10.901,20.061,13.337,43.165,6.855,65.06c-5.638,19.06-17.446,35.215-33.646,46.269
						c-2.405,1.641-4.911,3.173-7.505,4.583C2632.688,782.891,2584.539,770.669,2560.146,734.909z"/>
				</g>
			</g>
		</g>
		<g>
			<polygon style="fill:#BDD0FB;" points="2375.248,1016.372 1507.249,928.626 637.829,1011.337 621.787,2935.652 1490.85,2895.768 
				2359.076,2956.326 3227.332,2883.46 3243.205,979.382 			"/>
			<polygon style="fill:#91B3FA;" points="1509.862,2852.064 684.137,2889.888 699.355,1064.406 1525.418,985.955 			"/>
			<polygon style="fill:#91B3FA;" points="2334.792,2909.524 1509.862,2852.064 1525.418,985.955 2350.134,1069.206 			"/>
			<polygon style="fill:#91B3FA;" points="3159.749,2840.412 2334.792,2909.524 2350.134,1069.206 3174.807,1034.127 			"/>
			
				<rect x="1498.95" y="985.84" transform="matrix(1 0.0089 -0.0089 1 17.1791 -13.3776)" style="opacity:0.47;fill:#FFFFFF;" width="18.688" height="1866.685"/>
			<g>
				<path style="fill:#BDD0FB;" d="M2114.885,2156.902c-3.329,26.037-6.04,52.159-8.129,78.334
					c-0.499,6.245,0.718,14.733,6.747,15.344c3.63,0.367,6.651-2.677,9.097-5.475c10.387-11.884,21.546-27.21,16.521-42.365
					c-1.87-5.64-5.851-10.383-7.383-16.131c-2.304-8.645,1.307-17.844,0.378-26.76c-0.929-8.916-11.639-17.685-17.637-11.21
					L2114.885,2156.902z"/>
				<path style="fill:#BDD0FB;" d="M1446.613,1300.415c-40.854-21.594-66.549-24.516-110.533-19.727
					c-41.488,4.516-69.522,25.359-98.006,55.061c-6.479,6.757-12.774,14.15-21.176,18.029
					c-35.202,16.251-79.848,12.975-115.795,29.017c-42.788,19.094-54.86,78.483-93.941,104.742
					c-22.622,15.199-51.131,17.122-75.971,28c-36.773,16.102-53.732,49.549-74.616,82.1c-12.842,20.016-60.139,54.315-57.459,77.724
					c0.489,4.263,2.275,8.269,4.517,11.882c13.024,20.993,32.476,23.203,52.998,29.199c27.114,7.921,43.471,20.09,67.461,37.058
					c25.019,17.697,59.057,33.173,61.222,64.447c1.005,14.512-5.769,28.226-9.081,42.365
					c-14.94,63.774,40.505,121.059,94.468,155.546c53.965,34.488,117.636,68.559,134.8,131.73c1.565,5.759,2.881,12.005,7.07,16.126
					c15.755,15.499,27.552-19.561,32.326-30.706c3.073-7.176,0.289-15.791-4.513-21.867c-4.803-6.076-11.355-10.337-17.262-15.263
					c-19.932-16.621-32.86-41.932-34.904-68.331c-0.26-3.356-0.283-6.988,1.553-9.768c9.355-14.161,32.672-19.97,44.109-37.127
					c16.362-24.546,20.097-47.836,22.881-76.966c10.232-107.024,107.669-69.138,168.835-116.593
					c11.386-8.834,19.943-22.78,21.903-37.028c1.08-7.857,0.155-15.806-3.409-23.04c-6.02-12.223-18.333-20.088-31.15-23.608
					c-12.817-3.52-26.281-3.264-39.54-2.983c-12.304,0.26-24.61,0.521-36.916,0.782c-3.637,0.077-7.383,0.178-10.719,1.682
					c-4.713,2.126-7.906,6.727-10.461,11.343c-8.232,14.872-12.291,32.182-11.561,49.303c-16.219,5.703-31.969-9.76-40.817-24.935
					c-10.213-17.517-17.554-36.82-21.617-56.839c-1.57-7.735-2.534-16.297,1.335-23.113c2.133-3.759,5.522-6.556,8.941-9.103
					c13.778-10.263,29.672-18.021,46.556-19.866c28.834-3.152,56.859,11.073,80.496,28.513
					c22.701,16.745,59.726,36.785,85.197,12.72c13.15-12.425,13.385-35.04,4.224-50.839c-14.881-25.661-52.83-39.087-77.554-52.046
					c-11.573-6.066-19.005-18.55-22.292-31.533c-3.287-12.983-2.974-26.612-2.639-40.028c34.219-13.984,74.435-11.249,106.592,7.248
					c4.564,2.625,9.432,6.278,9.971,11.651c0.554,5.521-3.665,10.13-6.995,14.487c-29.599,38.726-2.993,69.993,31.837,91.846
					c0.831-98.19,1.054-196.883,1.111-295.176C1486.96,1319.561,1466.365,1310.855,1446.613,1300.415z"/>
				<path style="fill:#BDD0FB;" d="M1756.011,1383.567c-4.767-6.428-14.23-4.808-22.062-4.757
					c-25.012,0.162-44.883-21.647-68.927-28.781c-12.599-3.738-25.938-3.313-39.043-3.512
					c-39.963-0.607-79.808-7.436-117.887-19.989c-0.056,98.292-0.28,196.986-1.111,295.176
					c21.708,13.62,46.608,23.585,63.095,29.412c17.493,6.184,34.193,16.353,52.89,12.548c17.353-3.531,32.967-23.125,50.951-28.116
					c13.027-3.616,26.939-1.718,40.163-4.466c13.224-2.748,27.008-12.999,26.461-26.94c-0.446-11.352-10.092-19.892-19.688-25.417
					c0,1.084-16.627-12.522-18.202-15.469c-14.508-29.079,6.587-54.691,14.66-79.794c11.688-36.346-5.622-57.714,30.329-77.842
					C1755.287,1401.339,1761.302,1390.703,1756.011,1383.567z"/>
				<path style="fill:#BDD0FB;" d="M1270.172,2303.956c6.26,13.186,11.398,25.635,12.762,36.235
					c5.932,46.104-32.441,102.834-48.757,144.926c-4.537,11.705-9.162,24.162-7.118,36.595c0.861,5.237,2.876,10.184,4.884,15.075
					c14.815,36.096,43.925,68.766,69.786,96.602c8.843-23.865,8.188-81.176,5.761-106.599c-0.8-8.385-2.198-17.162,0.788-25.001
					c9.576-25.142,40.744-59.736,62.236-74.733c21.065-14.699,48.75-26.5,54.21-52.173c2.099-9.871,0.332-20.441,3.422-30.03
					c1.852-5.748,5.334-10.754,8.112-16.094c13.626-26.2,21.358-76.778-5.927-95.389c-30.499-20.803-73.663,9.665-99.831-24.268
					c-3.948-5.119-6.889-11.081-11.381-15.696c-8.336-8.563-21.143-11.274-32.732-9.268
					C1209.251,2197.491,1247.244,2255.665,1270.172,2303.956z"/>
				<path style="fill:#BDD0FB;" d="M1754.543,1923.099c24.358,16.116,66.403-19.24,81.864-60.572
					c1.935-5.174,3.729-10.574,7.272-14.738c7.214-8.477,19.625-9.562,30.438-7.998c10.813,1.564,21.594,5.152,32.423,3.715
					c15.539-2.062,28.375-14.401,35.631-28.765s9.867-30.677,12.379-46.674c11.495-2.932,23.921-1.802,34.747,3.159
					c8.359,3.831,16.611,12.276,14.277,21.42c-1.072,4.199-4.171,7.464-7.089,10.586c-9.117,9.755-17.611,20.132-25.408,31.043
					c-4.81,6.731-9.53,15.509-5.92,23c9.838,20.415,27.83,9.794,22.66,38.988c-6.507,36.571-54.532,51.521-27.097,95.209
					c10.04,15.988,28.3,25.552,46.711,26.415c13.21,0.62,29.476-6.458,29.645-20.137c0.05-4.055-1.397-8.228-0.168-12.079
					c1.599-5.009,7.086-7.463,12.128-8.256c16.497-2.595,32.443,5.971,47.667,13.039c4.595,2.134,10.082,4.12,14.451,1.529
					c14.234-8.441,7.592-15.405,26.946-17.27c16.503-1.59,35.813,11.571,45.16,24.585c2.248,3.129,4.279,7.16,2.855,10.769
					c-1.238,3.136-4.659,4.751-6.386,7.629c-2.846,4.742,0.021,11.295,4.509,14.394c4.487,3.098,10.071,3.78,15.355,4.906
					c24.795,5.28,25.375,29.731,42.897,41.934c14.225,9.907,50.46,11.862,47.262-16.636c-1.169-10.417-11.278-18.986-9.621-29.331
					c1.459-9.107,11.352-13.955,20.205-15.114c8.853-1.159,18.299-0.293,26.213-4.557c5.274-2.842,9.257-7.674,14.065-11.294
					c29.592-22.283,99.692-3.352,122.397,21.632c21.214,23.343,23.59,63.573,50.894,78.697
					c-3.189-31.02-18.321-60.554-41.347-80.697c-4.234-3.704-8.892-7.326-11.114-12.582c-1.865-4.413-1.758-9.417-1.521-14.227
					c1.21-24.57,5.871-47.449,12.352-70.384c-0.775,2.742,17.33-47.095,4.31-37.667c23.296-16.869,74.143-44.581,103.339-42.776
					c15.204,0.94,30.21,10.036,36.594,24.342c6.383,14.306,2.533,33.325-10.034,42.226c-12.032,8.521-28.73,6.885-40.951,15.112
					c-11.767,7.921-16.793,25.018-11.28,38.375c7.66-10.924,19.236-18.838,31.954-21.846c17.068-4.037,36.45,0.214,51.188-9.564
					c10.873-7.214,16.583-20.997,16.715-34.359c0.132-13.362-4.65-26.325-11.049-37.933c-4.628-8.396-10.199-16.438-12.676-25.758
					c-3.971-14.945,0.732-31.213,9.092-44.074c31.084-47.822,88.62-68.491,141.849-50.907c3.543,1.171,7.324,2.74,9.167,6.082
					c2.674,4.848,0.098,11.036,1.23,16.494c1.784,8.6,14.464,11.855,19.928,5.116c3.777-4.658,3.543-11.378,4.973-17.275
					c3.718-15.333,18.822-24.714,33.507-29.087c17.951-5.345,66.185-30.017,71.142,2.603c0.434,2.856,0.345,5.871,1.541,8.483
					c3.367,7.354,14.641,6.299,20.002,0.345c11.055-12.277,12.997-32.441,23.703-46.158c9.476-12.14,23.468-19.415,31.398-32.965
					c19.652-33.578,4.684-77.463-29.504-93.725c-32.758-15.582-70.876-8.671-106.363-2.071
					c-24.429,4.543-108.332,21.96-114.306-18.981c-0.49-3.356-0.383-6.931-1.953-9.911c-1.944-3.689-6.014-5.624-8.492-8.952
					c-3.164-4.249-3.292-10.052-4.996-15.117c-6.19-18.395-29.517-21.767-48.344-21.993c1.898-11.409,2.929-25.307-5.939-32.369
					c-5.012-3.991-11.776-4.431-18.095-4.71c-16.419-0.726-56.021,5.372-69.633-4.566c-18.03-13.163-5.612-35.586-13.469-53.741
					c-8.354-19.281-39.412-21.96-42.865-42.785c-0.747-4.504,0.069-9.145-0.451-13.682c-1.268-11.068-9.985-19.408-18.137-26.695
					c-14.776-13.207-31.516-27.181-51.037-26.665c-3.669,3-0.374,9.295,3.764,11.552c4.137,2.257,9.423,3.428,11.517,7.755
					c4.017,8.298-7.502,15.11-16.314,16.848c-0.429,12.127,11.358,20.161,20.463,27.812c15.379,12.923,26.307,31.402,30.425,51.452
					c-31.027,5.764-62.817,7.115-94.197,4.003c-37.81-3.749-62.097,58.334-106.911,41.125c-6.619-2.543-12.537-7.105-19.475-8.464
					c-17.446-3.417-31.499,13.679-47.177,22.301c-23.871,13.126-53.137,6.32-78.72-2.719c-30.568-10.8-67.739-26.306-98.55-7.676
					c-11.515,6.964-20.714,17.8-32.905,23.398c-25.589,11.75-54.622-2.676-82.491-5.442
					c-68.758-6.825-110.136,62.776-132.473,120.736c-3.39,8.797-6.43,18.038-5.987,27.497s5.087,19.251,13.432,23.145
					c12.365,5.769,26.732-3.395,34.803-14.673c8.071-11.278,12.977-25.062,22.852-34.682s28.021-12.715,35.82-1.234
					c3.838,5.649,3.994,13.042,4.009,19.947c0.027,13.113,0.054,26.225,0.081,39.338c0.015,7.212-0.019,14.672-2.85,21.262
					c-4.727,11.004-16.006,17.078-26.483,22.324c-22.756,11.394-45.512,22.788-68.268,34.182
					c-7.682,3.846-15.453,7.752-21.974,13.446c-29.725,25.954-9.752,61.876-32.684,86.866
					c-9.258,10.089-24.614,13.121-32.207,24.602c-5.611,8.484-5.583,19.523-5.348,29.799
					C1737.135,1900.333,1744.264,1916.298,1754.543,1923.099z"/>
				<path style="fill:#BDD0FB;" d="M2547.905,2141.19c-9.214,17.234-7.941,39.761-28.763,49.277
					c-13.851,6.33-31.581,3.44-42.861,13.89c-12.869,11.922-9.508,33.064-7.022,50.748c0.446,3.17,0.805,6.538-0.448,9.468
					c-3.316,7.76-15.205,7.555-19.283,14.917c-3.5,6.318,0.837,14.283,6.057,19.169c15.904,14.884,41.752,16.834,59.575,4.494
					c4.743-3.284,9.881-7.672,15.423-6.264c6.466,1.642,8.634,9.763,10.39,16.406c3.739,14.142,11.12,27.736,22.783,36.079
					c36.694,26.24,88.315-5.692,129.065,31.333c5.006,4.548,9.768,9.955,11.229,16.68c1.579,7.266-0.782,15.611,3.167,21.838
					c4.944,7.798,17.113,6.741,23.767,0.449c6.654-6.292,9.326-15.768,12.105-24.639s6.424-18.248,14.066-23.21
					c12.869-8.348,27.538-5.154,34.662-22.135c8.885-21.661-17.626-39.602-9.212-59.339c3.757-8.813,9.764-18.43,5.993-27.236
					c-1.915-4.472-5.978-7.464-9.333-10.931c-15.705-16.241-18.376-31.522-39.302-41.429c-13.352-6.321-41.016,1.858-46.498-21.181
					c-1.429-6.004,0.618-13.54-3.857-17.637c-2.537-2.323-6.247-2.481-9.635-2.469c-23.415,0.084-51.261,0.448-64.606-19.456
					c-14.748-21.997-16.478-37.859-46.428-26.935C2558.046,2127.047,2551.96,2133.606,2547.905,2141.19z"/>
				<path style="fill:#BDD0FB;" d="M1849.964,2020.152c-4.879,7.002-7.63,15.437-12.777,22.232
					c-14.48,19.117-20.767,2.217-37.132,8.654c-5.65,2.227-10.65,6.19-16.542,7.591c-11.914,2.834-23.749-5.389-35.974-5.44
					c-47.09-0.197-22.371,78.116,0.426,93.134c4.219,2.78,9.54,2.818,14.542,2.768c15.525-0.157,31.05-0.314,46.576-0.471
					c4.426-0.045,9.167,0.005,12.814,2.6c11.231,7.991,0.531,27.73,7.286,39.979c4.634,8.403,15.403,9.966,24.611,11.695
					c19.463,3.653,23.722,25.565,35.636,39.082c15.314,17.375,29.927,24.38,38.56,49.605c5.126,14.979,6.902,31.184,13.664,45.452
					c13.905,29.34,49.972,45.15,80.02,35.077c30.049-10.073,50.298-44.761,44.927-76.961c-3.137-18.81-13.608-35.288-20.878-52.832
					c-14.707-35.487-4.758-78.701,35.988-85.471c10.284-1.709,23.346-2.308,27.184-12.324c5.531-14.435-15.805-31.321-6.959-43.865
					c3.185-4.516,9.349-6.132,12.147-10.913c3.761-6.427-0.519-14.744-5.759-19.946c-5.24-5.201-11.847-9.707-14.013-16.882
					c-12.184-40.402-52.201-15.151-78.904-9.826c-23.817,4.75-37.4,1.663-57.215-10.188
					C1927.508,2014.548,1881.015,1975.591,1849.964,2020.152z"/>
				<path style="fill:#BDD0FB;" d="M1951.427,1388.362c3.519-6.797,12.12-8.389,19.557-8.911
					c25.627-1.799,51.483-0.071,76.673,5.124c-20.853,16.963-44.132,34.794-70.644,33.871c-12.027-0.419-24.508-4.708-35.759-0.292
					c-2.632-8.201-1.18-17.684,3.774-24.642L1951.427,1388.362z"/>
				<path style="fill:#BDD0FB;" d="M1655.126,1700.302c26.151,21.411,118.4-7.159,75.363-34.794
					c-6.954-4.465-15.294-5.839-23.384-7.119c-10.875-1.721-22.027-3.438-32.8-1.129c-10.772,2.308-21.26,9.523-24.493,20.402
					C1646.702,1688.129,1649.239,1695.482,1655.126,1700.302z"/>
				<path style="fill:#BDD0FB;" d="M2794.481,1511.928c16.176,14.672,38.826,18.282,60.142,21.286
					c10.64,1.499,24.57,1.092,28.245-9.345c3.874-11.007-8.632-21.172-19.888-22.448c-11.256-1.275-23.213,1.802-33.642-2.764
					c-9.249-4.05-16.532-13.829-26.575-13.741c-11.693,0.102-18.771,17.754-10.582,26.389L2794.481,1511.928z"/>
			</g>
		</g>
		<g>
			<g>
				<g>
					
						<linearGradient id="SVGID_00000133529582235743204560000004830402436008907667_" gradientUnits="userSpaceOnUse" x1="2201.1755" y1="1394.4882" x2="2316.6252" y2="701.7872">
						<stop  offset="0" style="stop-color:#FE7062"/>
						<stop  offset="1" style="stop-color:#FF928E"/>
					</linearGradient>
					
						<circle style="fill:url(#SVGID_00000133529582235743204560000004830402436008907667_);" cx="2260.553" cy="1038.222" r="233.958"/>
					
						<linearGradient id="SVGID_00000116933151084113077120000015396911802359209096_" gradientUnits="userSpaceOnUse" x1="2200.8274" y1="1394.4305" x2="2316.2771" y2="701.7294">
						<stop  offset="0" style="stop-color:#FE7062"/>
						<stop  offset="1" style="stop-color:#FF928E"/>
					</linearGradient>
					<path style="fill:url(#SVGID_00000116933151084113077120000015396911802359209096_);" d="M2494.084,1022.011h-233.531h-233.958
						c0,0-18.625,131.691,190.179,487.373c9.11,15.519,25.756,25.709,43.751,25.718c17.995,0.008,34.67-10.485,43.78-26.004
						C2513.088,1153.384,2494.084,1022.011,2494.084,1022.011z"/>
				</g>
				<g>
					
						<linearGradient id="SVGID_00000106855478634590389150000006952429119537358521_" gradientUnits="userSpaceOnUse" x1="2595.5115" y1="541.8746" x2="2037.9625" y2="1455.161">
						<stop  offset="0" style="stop-color:#E1473D"/>
						<stop  offset="1" style="stop-color:#E9605A"/>
					</linearGradient>
					<path style="fill:url(#SVGID_00000106855478634590389150000006952429119537358521_);" d="M2266.681,1543.609v1.322h-6.16
						c-20.365,0-39.372-11.208-49.605-28.638c-122.053-207.908-166.776-339.369-182.797-412.928
						c-4.568-16.921-7.193-33.511-8.021-50.517c-1.414-17.397-0.332-24.727-0.205-25.501l0.615-3.743
						c9.426-125.674,114.021-223.48,240.045-223.48c127.679,0,233.218,99.192,240.353,225.867c0.179,1.657,0.521,5.863,0.387,12.896
						l0.01,0.863c0,22.979-3.247,45.74-9.649,67.652c-16.573,73.495-58.455,203.657-178.428,408.058
						C2302.929,1533.005,2283.659,1543.609,2266.681,1543.609z M2032.98,1035.593c-0.056,0,0.051,8.823,0.666,16.367l0.015,0.128
						c0.777,16.111,3.268,31.701,7.615,47.76l0.08,0.307c15.781,72.561,60.04,202.394,181.276,408.907
						c7.805,13.295,25.391,21.552,40.961,21.558l3.088,6.786v-6.792c6.791,0.001,27.929-8.328,35.798-21.736
						c119.203-203.092,164.542-332.161,178.124-404.673v-0.419c6.791-20.734,7.981-42.28,7.981-64.039l-1.19-0.956v-0.077
						c0-6.772-0.056-10.435-0.166-11.396l0.045-0.393c-6.642-119.568-106.225-213.23-226.76-213.23
						c-120.305,0-219.897,94.677-226.755,215.294l-0.345,6.602H2032.98z"/>
				</g>
				
					<ellipse transform="matrix(0.7071 -0.7071 0.7071 0.7071 -71.2782 1902.8531)" style="opacity:0.8;fill:#FFFFFF;" cx="2261.308" cy="1037.467" rx="135.092" ry="135.092"/>
				<g>
					
						<linearGradient id="SVGID_00000021836133602110122470000014967217696501272997_" gradientUnits="userSpaceOnUse" x1="2619.2603" y1="640.3641" x2="1962.5155" y2="1368.9392">
						<stop  offset="0" style="stop-color:#E1473D"/>
						<stop  offset="1" style="stop-color:#E9605A"/>
					</linearGradient>
					<path style="fill:url(#SVGID_00000021836133602110122470000014967217696501272997_);" d="M2261.308,1180.106
						c-78.652,0-142.639-63.987-142.639-142.639s63.988-142.639,142.639-142.639s142.639,63.988,142.639,142.639
						S2339.959,1180.106,2261.308,1180.106z M2261.308,909.922c-70.328,0-127.545,57.216-127.545,127.545
						c0,70.328,57.217,127.545,127.545,127.545c70.328,0,127.545-57.217,127.545-127.545
						C2388.853,967.139,2331.636,909.922,2261.308,909.922z"/>
				</g>
			</g>
			<g>
				<path style="fill:#FFFFFF;" d="M2133.159,896.815c-0.636,0-1.271-0.267-1.719-0.789c-0.814-0.949-0.706-2.378,0.243-3.193
					c37.951-32.593,86.437-50.542,136.529-50.542c1.25,0,2.264,1.014,2.264,2.264c0,1.251-1.013,2.265-2.264,2.265
					c-49.01,0-96.449,17.561-133.579,49.448C2134.207,896.635,2133.682,896.815,2133.159,896.815z"/>
			</g>
			<g>
				<path style="fill:#FFFFFF;" d="M2060.82,1054.212c-1.251,0-2.264-1.013-2.264-2.264c0-39.12,10.845-77.283,31.363-110.361
					c0.66-1.064,2.056-1.391,3.118-0.731c1.063,0.659,1.391,2.055,0.731,3.117c-20.074,32.361-30.684,69.699-30.684,107.975
					C2063.084,1053.199,2062.07,1054.212,2060.82,1054.212z"/>
			</g>
		</g>
		<g>
			<g>
				
					<linearGradient id="SVGID_00000130642362374847033670000007994868636639359146_" gradientUnits="userSpaceOnUse" x1="1536.6094" y1="2047.8081" x2="1544.2113" y2="1913.506">
					<stop  offset="0" style="stop-color:#09005D"/>
					<stop  offset="1" style="stop-color:#1A0F91"/>
				</linearGradient>
				<path style="fill:url(#SVGID_00000130642362374847033670000007994868636639359146_);" d="M1438.197,1884.561
					c-1.057,2.002-67.615,50.979-67.615,50.979s14.698,105.153,74.384,146.675c65.622,45.651,158.296-37.602,158.296-37.602
					s73.753,17.532,112.974-135.994c8.999-35.222-42.944-38.2-105.633-31.713
					C1529.764,1885.272,1438.197,1884.561,1438.197,1884.561z"/>
				
					<linearGradient id="SVGID_00000153671708004239142820000003509396416482330040_" gradientUnits="userSpaceOnUse" x1="1640.8964" y1="2324.3418" x2="1131.5582" y2="3431.3052">
					<stop  offset="0" style="stop-color:#FE7062"/>
					<stop  offset="1" style="stop-color:#FF928E"/>
				</linearGradient>
				<path style="fill:url(#SVGID_00000153671708004239142820000003509396416482330040_);" d="M1313.79,2243.308
					c26.038-17.902,54.826-31.4,85.346-39.705c11.464-3.12,73.361,14.87,111.624,13.99c52.523-1.207,105.987-25.11,149.281-14.321
					c43.005,10.717,78.203,24.715,98.527,39.17c60.832,43.266,96.549,123.943,118.315,203.855
					c-41.214,42.307-93.079,61.109-93.079,61.109l-9.584,388.437l-229.69,117.518l-262.163-131.621l9.391-379.595
					c0,0-83.25-38.769-89.358-52.872C1196.29,2435.173,1240.341,2293.809,1313.79,2243.308z"/>
				
					<linearGradient id="SVGID_00000141443713501474595840000015346139709500235653_" gradientUnits="userSpaceOnUse" x1="1149.277" y1="2364.4219" x2="1585.7516" y2="3418.7634">
					<stop  offset="0" style="stop-color:#FEBBBA"/>
					<stop  offset="1" style="stop-color:#FF928E"/>
				</linearGradient>
				<path style="fill:url(#SVGID_00000141443713501474595840000015346139709500235653_);" d="M1206.277,2447.58
					c0,0-111.559,309.287,142.837,436.403c52.823-7.018,32.506-94.74,32.506-94.74s-110.537-24.462-77.339-282.467
					C1273.716,2481.629,1206.277,2447.58,1206.277,2447.58z"/>
				
					<linearGradient id="SVGID_00000046312790545618477160000001898755766848059064_" gradientUnits="userSpaceOnUse" x1="-6090.1177" y1="2362.1558" x2="-5653.6431" y2="3416.4973" gradientTransform="matrix(-1 0 0 1 -4167.0742 0)">
					<stop  offset="0" style="stop-color:#FEBBBA"/>
					<stop  offset="1" style="stop-color:#FF928E"/>
				</linearGradient>
				<path style="fill:url(#SVGID_00000046312790545618477160000001898755766848059064_);" d="M1871.518,2447.58
					c0,0,76.765,322.854-142.837,436.403c-52.823-7.018-32.506-94.74-32.506-94.74s89.086-43.874,77.34-282.467
					C1804.078,2481.629,1871.518,2447.58,1871.518,2447.58z"/>
				
					<linearGradient id="SVGID_00000036958782659459559470000008869834314978646404_" gradientUnits="userSpaceOnUse" x1="1536.9924" y1="2500.3438" x2="1514.271" y2="3420.5767">
					<stop  offset="0" style="stop-color:#09005D"/>
					<stop  offset="1" style="stop-color:#1A0F91"/>
				</linearGradient>
				<path style="fill:url(#SVGID_00000036958782659459559470000008869834314978646404_);" d="M1778.969,2905.705h-495.571
					c-2.23,0-4.055-1.825-4.055-4.055v-332.045c0-2.23,1.825-4.055,4.055-4.055h495.571c2.23,0,4.055,1.825,4.055,4.055v332.045
					C1783.023,2903.881,1781.199,2905.705,1778.969,2905.705z"/>
				<g>
					
						<linearGradient id="SVGID_00000144297224499793047560000017969958366072942775_" gradientUnits="userSpaceOnUse" x1="1812.7021" y1="3022.8191" x2="2051.2205" y2="3022.8191" gradientTransform="matrix(1 0.0077 -0.0077 1 9.5247 16.8137)">
						<stop  offset="0" style="stop-color:#09005D"/>
						<stop  offset="1" style="stop-color:#1A0F91"/>
					</linearGradient>
					<path style="fill:url(#SVGID_00000144297224499793047560000017969958366072942775_);" d="M2003.945,3006.549
						c-57.643-13.231-190.868-6.118-190.868-6.118l-5.418,14.675l-8.973,72.94c0,0,126.874,22.869,189.412,22.813
						c6.381-0.006,12.217-0.964,17.548-2.623c1.906-1.71,3.771-3.485,5.532-5.409
						C2037.711,3073.849,2030.048,3031.281,2003.945,3006.549z"/>
					
						<linearGradient id="SVGID_00000058578714480378074390000012472226976302352812_" gradientUnits="userSpaceOnUse" x1="2173.4968" y1="515.8739" x2="1996.9237" y2="3734.895" gradientTransform="matrix(1 0.0077 -0.0077 1 9.5247 16.8137)">
						<stop  offset="0" style="stop-color:#4042E2"/>
						<stop  offset="1" style="stop-color:#4F52FF"/>
					</linearGradient>
					<path style="fill:url(#SVGID_00000058578714480378074390000012472226976302352812_);" d="M2009.657,3007.995
						c-1.806-0.508-3.717-0.988-5.712-1.446c26.103,24.732,33.766,67.301,7.233,96.278c-1.762,1.925-3.626,3.699-5.532,5.409
						C2052.561,3093.634,2058.115,3021.627,2009.657,3007.995z"/>
					
						<linearGradient id="SVGID_00000131337002654603696750000014332273088253854864_" gradientUnits="userSpaceOnUse" x1="1956.3816" y1="2623.5327" x2="1704.6096" y2="3305.4849">
						<stop  offset="0" style="stop-color:#FEBBBA"/>
						<stop  offset="1" style="stop-color:#FF928E"/>
					</linearGradient>
					<path style="fill:url(#SVGID_00000131337002654603696750000014332273088253854864_);" d="M1774.798,2996.324l22.559,0.962
						c12.12,0.517,23.543,6.423,31.692,16.387c8.15,9.963,12.341,23.145,11.628,36.573c-0.569,10.708-4.962,20.722-12.208,27.827
						c-7.245,7.103-16.746,10.712-26.397,10.024l-34.517-2.456L1774.798,2996.324z"/>
				</g>
				<g>
					
						<linearGradient id="SVGID_00000129172492063623228010000008058010840364034218_" gradientUnits="userSpaceOnUse" x1="-6094.9365" y1="2981.9507" x2="-5856.3179" y2="2981.9507" gradientTransform="matrix(-0.9998 -0.02 -0.02 0.9998 -4813.9961 -50.8396)">
						<stop  offset="0" style="stop-color:#09005D"/>
						<stop  offset="1" style="stop-color:#1A0F91"/>
					</linearGradient>
					<path style="fill:url(#SVGID_00000129172492063623228010000008058010840364034218_);" d="M1016.237,2999.532
						c57.95-11.458,190.947-0.259,190.947-0.259l5.05,14.835l7.151,73.188c0,0-127.396,18.966-189.91,16.992
						c-6.378-0.202-12.188-1.339-17.475-3.16c-1.864-1.768-3.682-3.6-5.396-5.578
						C980.804,3065.77,989.526,3023.455,1016.237,2999.532z"/>
					
						<linearGradient id="SVGID_00000078753647158350366350000010531723993979071383_" gradientUnits="userSpaceOnUse" x1="-5717.3208" y1="171.2794" x2="-5893.894" y2="3390.3027" gradientTransform="matrix(-0.9998 -0.02 -0.02 0.9998 -4813.9961 -50.8396)">
						<stop  offset="0" style="stop-color:#4042E2"/>
						<stop  offset="1" style="stop-color:#4F52FF"/>
					</linearGradient>
					<path style="fill:url(#SVGID_00000078753647158350366350000010531723993979071383_);" d="M1010.491,3000.802
						c1.817-0.452,3.74-0.873,5.746-1.27c-26.71,23.922-35.432,66.238-9.633,96.018c1.714,1.978,3.532,3.81,5.396,5.578
						C965.467,3085.093,961.711,3012.943,1010.491,3000.802z"/>
					
						<linearGradient id="SVGID_00000049224233256849489960000007615659218316843158_" gradientUnits="userSpaceOnUse" x1="1451.9507" y1="2418.0259" x2="1200.0461" y2="3100.3369">
						<stop  offset="0" style="stop-color:#FEBBBA"/>
						<stop  offset="1" style="stop-color:#FF928E"/>
					</linearGradient>
					<path style="fill:url(#SVGID_00000049224233256849489960000007615659218316843158_);" d="M1245.552,2996.343l-22.575,0.269
						c-12.129,0.146-23.694,5.698-32.09,15.408c-8.395,9.709-12.912,22.758-12.535,36.203c0.301,10.721,4.443,20.866,11.509,28.19
						c7.065,7.324,16.472,11.222,26.137,10.831l34.565-1.396L1245.552,2996.343z"/>
				</g>
				
					<linearGradient id="SVGID_00000131360867748016420810000011249195819775235464_" gradientUnits="userSpaceOnUse" x1="1632.3967" y1="2909.6689" x2="1109.4753" y2="4104.9165">
					<stop  offset="0" style="stop-color:#4042E2"/>
					<stop  offset="1" style="stop-color:#4F52FF"/>
				</linearGradient>
				<path style="fill:url(#SVGID_00000131360867748016420810000011249195819775235464_);" d="M2020.065,2777.888
					c-26.14-60.164-90.076-69.93-144.492-41.799c-0.948,1.244-345.577,177.871-649.499,255.281
					c8.701,27.893,13.174,57.573,14.15,86.746c0.176,6.5,0.067,12.91-0.314,19.236c233.064-11.971,486.007-89.697,703.362-158.004
					C2010.674,2917.61,2049.039,2844.57,2020.065,2777.888z"/>
				
					<linearGradient id="SVGID_00000142166659138799848610000012336553576560031370_" gradientUnits="userSpaceOnUse" x1="1712.399" y1="1846.2168" x2="1406.7963" y2="2946.3877">
					<stop  offset="0" style="stop-color:#4042E2"/>
					<stop  offset="1" style="stop-color:#4F52FF"/>
				</linearGradient>
				<path style="fill:url(#SVGID_00000142166659138799848610000012336553576560031370_);" d="M1776.454,3082.685
					c-0.911-33.626,5.627-64.929,19.613-93.909c0.4-1.328,0.878-2.602,1.301-3.913c-17.355-5.375-39.776-12.658-69.229-22.649
					c-215.814-73.857-380.455-148.432-537.589-234.281c-61.044-33.351-130.45-10.999-149.991,61.231
					c-17.444,64.48,20.863,119.53,79.003,138.876c173.938,57.881,83.374,41.803,140.182,60.085
					c152.562,47.177,342.406,90.147,517.073,101.88C1776.686,3087.565,1776.536,3085.121,1776.454,3082.685z"/>
				
					<linearGradient id="SVGID_00000036946327876879784340000012031975190211389319_" gradientUnits="userSpaceOnUse" x1="1532.439" y1="2451.4761" x2="1526.6313" y2="1946.1824">
					<stop  offset="0" style="stop-color:#FEBBBA"/>
					<stop  offset="1" style="stop-color:#FF928E"/>
				</linearGradient>
				<path style="fill:url(#SVGID_00000036946327876879784340000012031975190211389319_);" d="M1399.136,2203.604
					c0,0,23.21,100.582,135.897,98.493c114.775-2.089,125.007-98.823,125.007-98.823l-74.974-16.043l-6.266-83.539l-112.778,8.354
					l-2.088,79.362L1399.136,2203.604z"/>
				
					<linearGradient id="SVGID_00000048466342783696175580000016038743853794446266_" gradientUnits="userSpaceOnUse" x1="1662.1722" y1="1566.8364" x2="1680.2634" y2="1127.1427" gradientTransform="matrix(0.987 0.1608 -0.1608 0.987 126.9837 357.2448)">
					<stop  offset="0" style="stop-color:#FEBBBA"/>
					<stop  offset="1" style="stop-color:#FF928E"/>
				</linearGradient>
				<path style="fill:url(#SVGID_00000048466342783696175580000016038743853794446266_);" d="M1481.856,1866.998
					c0,0-129.244,250.351,24.068,311.089c108.14,42.841,175.941-166.252,155.718-222.885
					c-31.268-87.566-51.861-77.174-51.861-77.174L1481.856,1866.998z"/>
				
					<linearGradient id="SVGID_00000183237868875687419200000016128728754559338922_" gradientUnits="userSpaceOnUse" x1="1611.7186" y1="1631.4014" x2="1560.4049" y2="1834.755">
					<stop  offset="0" style="stop-color:#09005D"/>
					<stop  offset="1" style="stop-color:#1A0F91"/>
				</linearGradient>
				<path style="fill:url(#SVGID_00000183237868875687419200000016128728754559338922_);" d="M1692.743,1844.217
					c63.849,17.549,9.281,156.022-86.846,123.276c-96.128-32.745-133.902-32.268-148.881-5.871
					c-14.98,26.396-18.198,120.134-50.7,73.802c-35.633-50.796-55.502-152.752-11.813-185.619
					c39.046-29.374,48.158-74.916,94.99-73.337c62.162,2.095,110.235-25.459,138.294-5.588
					C1660.012,1793.703,1645.763,1831.305,1692.743,1844.217z"/>
				
					<linearGradient id="SVGID_00000016763745464602941350000017358438501329861027_" gradientUnits="userSpaceOnUse" x1="1144.9292" y1="2619.9839" x2="1173.2797" y2="1930.9423" gradientTransform="matrix(0.9911 -0.1329 0.1329 0.9911 -26.0254 -216.2621)">
					<stop  offset="0" style="stop-color:#FEBBBA"/>
					<stop  offset="1" style="stop-color:#FF928E"/>
				</linearGradient>
				<path style="fill:url(#SVGID_00000016763745464602941350000017358438501329861027_);" d="M1451.104,1983.15
					c0,0-27.564-29.658-31.976,6.088c-4.413,35.745,9.752,81.782,26.348,56.548C1462.072,2020.55,1451.104,1983.15,1451.104,1983.15
					z"/>
			</g>
			<path style="fill:#7D97F4;" d="M1560.892,2657.668c2.671,18.046-6.998,34.427-25.044,37.098
				c-18.046,2.67-34.841-9.794-37.511-27.841c-2.67-18.046,5.59-35.97,23.636-38.641
				C1540.02,2625.614,1558.222,2639.622,1560.892,2657.668z"/>
		</g>
		<g>
			
				<linearGradient id="SVGID_00000083083718932525329090000017112139619407481772_" gradientUnits="userSpaceOnUse" x1="983.0172" y1="1059.2108" x2="1363.3223" y2="1588.9218">
				<stop  offset="0" style="stop-color:#4042E2"/>
				<stop  offset="1" style="stop-color:#4F52FF"/>
			</linearGradient>
			<path style="fill:url(#SVGID_00000083083718932525329090000017112139619407481772_);" d="M1183.898,809.805l41.993,151.329
				c5.7,20.542,2.24,42.547-9.553,60.307c-29.615,44.599-102.017,125.137-255.524,166.22
				c-155.907,41.725-244.17-1.203-282.152-29.486c-13.753-10.241-23.749-24.704-28.476-41.186l-45.965-160.263L1183.898,809.805z"/>
			
				<linearGradient id="SVGID_00000015355321743792143190000017523462179302341268_" gradientUnits="userSpaceOnUse" x1="908.9496" y1="273.9706" x2="874.9933" y2="912.3425">
				<stop  offset="0" style="stop-color:#4042E2"/>
				<stop  offset="1" style="stop-color:#4F52FF"/>
			</linearGradient>
			<path style="fill:url(#SVGID_00000015355321743792143190000017523462179302341268_);" d="M851.533,615.022l436.664,122.321
				c22.484,6.298,28.859,35.121,11.114,50.297c-86.559,74.029-283.276,246.458-357.782,346.601
				c-7.971,10.713-22.21,14.604-34.548,9.496L465.155,960.849c-19.986-8.273-24.364-34.639-8.11-48.91
				c85.719-75.257,303.859-263.683,374.771-295.497C838.015,613.661,844.991,613.19,851.533,615.022z"/>
			
				<linearGradient id="SVGID_00000038387637923245290820000012724922891217637817_" gradientUnits="userSpaceOnUse" x1="-3002.0134" y1="1324.9069" x2="-3403.0752" y2="2470.8005" gradientTransform="matrix(1 0 0 1 3618.4697 0)">
				<stop  offset="0" style="stop-color:#4042E2"/>
				<stop  offset="1" style="stop-color:#4F52FF"/>
			</linearGradient>
			<path style="fill:url(#SVGID_00000038387637923245290820000012724922891217637817_);" d="M860.98,840.599
				c0,0-232.797,146.842-250.537,180.39c-17.74,33.548,17.971,186.053,17.971,186.053c-36.649,129.076-42.076,269.241,19.83,342.567
				c0,0,76.321-169.735,42.226-241.276c-34.095-71.542-47.236-100.869-47.236-100.869s-29.827-162.575-20.394-185.815
				C622.841,1021.648,880.738,849.898,860.98,840.599z"/>
			<path style="fill:#BDD0FB;" d="M1229.436,777.843l-223.478,220.444l-55.87,55.11l-13.967,13.778l-6.972,6.853
				c-2.178,2.138-4.64,3.968-7.227,5.576c-10.412,6.403-23.681,7.921-35.318,3.836l-148.825-49.856
				c-1.175-0.394-2.447,0.239-2.84,1.414c-0.392,1.17,0.234,2.435,1.399,2.835l148.443,50.982
				c13.081,4.706,28.291,3.144,40.234-4.099c2.975-1.815,5.806-3.895,8.319-6.321l7.071-6.846l14.071-13.672l56.285-54.686
				l225.142-218.743c1.831-1.779,1.873-4.706,0.094-6.537c-1.779-1.831-4.705-1.873-6.536-0.094L1229.436,777.843z"/>
			<path style="fill:#BDD0FB;" d="M645.451,1285.471l0.442,0.469l0.517,0.612l1.047,1.239l2.01,2.706
				c1.327,1.826,2.489,3.832,3.75,5.738l3.316,6.1c1.032,2.08,1.935,4.235,2.914,6.35c1.029,2.093,1.792,4.312,2.589,6.517
				c0.781,2.21,1.649,4.39,2.366,6.625l1.902,6.802c0.614,2.274,1.355,4.516,1.737,6.854l1.387,6.955
				c0.442,2.323,1.009,4.626,1.216,6.993c0.555,4.709,1.191,9.415,1.689,14.139l0.686,14.263c0.046,1.189,0.142,2.378,0.146,3.569
				l-0.083,3.576l-0.166,7.157c0.079,9.561-1.227,19.065-1.995,28.606c-0.156,2.391-0.545,4.755-0.93,7.121l-1.118,7.103
				c-0.767,4.732-1.441,9.483-2.285,14.206c-2.117,9.361-4.036,18.779-6.315,28.114l-7.827,27.777l-0.024,0.083
				c-0.241,0.854,0.257,1.742,1.111,1.983c0.84,0.237,1.713-0.243,1.971-1.071l8.603-27.742c2.542-9.344,4.728-18.795,7.109-28.199
				c0.978-4.75,1.786-9.539,2.688-14.31l1.319-7.166c0.452-2.387,0.908-4.774,1.131-7.198c1.038-9.668,2.609-19.296,2.789-29.065
				l0.358-7.309l0.178-3.655c0.027-1.22-0.038-2.442-0.053-3.663l-0.325-14.668c-0.383-4.882-0.91-9.76-1.362-14.647
				c-0.155-2.452-0.675-4.863-1.072-7.29l-1.257-7.275c-0.339-2.442-1.047-4.815-1.628-7.214l-1.815-7.188
				c-0.693-2.375-1.545-4.71-2.314-7.068c-0.783-2.355-1.536-4.722-2.573-6.997c-0.984-2.291-1.894-4.613-2.948-6.882l-3.426-6.708
				c-1.335-2.159-2.547-4.366-3.999-6.483l-2.227-3.16l-1.247-1.56l-0.634-0.784l-0.78-0.864c-1.709-1.895-4.632-2.046-6.527-0.336
				c-1.895,1.71-2.046,4.633-0.336,6.527c0.017,0.019,0.034,0.037,0.051,0.057L645.451,1285.471z"/>
			<path style="fill:#BDD0FB;" d="M638.341,1345.547l0.011,9.084l-0.078,10.241l-0.268,20.522l-0.703,41.07l-1.655,82.153
				c-0.032,1.388,1.066,2.538,2.453,2.571c1.364,0.032,2.501-1.042,2.568-2.397l3.765-82.102l1.759-41.065l0.796-20.551
				l0.344-10.298l0.127-5.19l0.051-2.61c-0.007-1.122-0.084-2.45-0.196-3.654c-0.23-2.473-2.422-4.291-4.895-4.06
				c-2.328,0.217-4.076,2.172-4.08,4.463L638.341,1345.547z"/>
		</g>
		<g>
			<g>
				<path style="fill:#7D97F4;" d="M2803.344,2472.566c0,0-23.937-148.937,49.179-197.114c3.25-2.143,7.599,0.293,7.599,4.188
					v28.314c0,6.767,8.06,10.254,12.985,5.614c15.745-14.835,43.906-37.368,73.769-42.062c7.967-1.252,14.182,6.697,10.765,14.002
					c-18.319,39.16-66.285,148.908-64.448,220.804L2803.344,2472.566z"/>
				
					<linearGradient id="SVGID_00000087401050437556363970000001486339540300586165_" gradientUnits="userSpaceOnUse" x1="2843.7041" y1="2837.561" x2="2796.1665" y2="3815.4873">
					<stop  offset="0" style="stop-color:#4042E2"/>
					<stop  offset="1" style="stop-color:#4F52FF"/>
				</linearGradient>
				<path style="fill:url(#SVGID_00000087401050437556363970000001486339540300586165_);" d="M2725.712,2472.526L2676.769,3255
					h293.287v-760.626c0-21.878-13.957-41.254-34.66-48.329c-38.81-13.265-104.797-29.818-169.6-18.31
					C2743.702,2431.658,2727.113,2450.13,2725.712,2472.526z"/>
				<path style="fill:#7D97F4;" d="M2726.49,2965.307l-9.937,218.183c-0.823,18.083,13.615,33.194,31.717,33.194h148.16
					c17.534,0,31.75-14.214,31.75-31.75v-218.183c0-17.534-14.215-31.75-31.75-31.75h-138.224
					C2741.233,2935.002,2727.262,2948.352,2726.49,2965.307z"/>
			</g>
			<g>
				
					<linearGradient id="SVGID_00000180348602357087176490000007993238491282887615_" gradientUnits="userSpaceOnUse" x1="4145.0176" y1="781.0343" x2="3683.2188" y2="1711.424">
					<stop  offset="0" style="stop-color:#09005D"/>
					<stop  offset="1" style="stop-color:#1A0F91"/>
				</linearGradient>
				<path style="fill:url(#SVGID_00000180348602357087176490000007993238491282887615_);" d="M3252.46,3255v-808.845
					c0-20.182-13.101-38.153-32.402-44.05c-86.353-26.385-161.465-11.611-200.889,0.643c-17.473,5.431-29.404,21.531-29.404,39.828
					V3255H3252.46z"/>
				
					<linearGradient id="SVGID_00000042013004893480411690000007883951766165282742_" gradientUnits="userSpaceOnUse" x1="3221.8293" y1="2312.3328" x2="3053.0515" y2="2644.1677">
					<stop  offset="0" style="stop-color:#4042E2"/>
					<stop  offset="1" style="stop-color:#4F52FF"/>
				</linearGradient>
				<path style="opacity:0.37;fill:url(#SVGID_00000042013004893480411690000007883951766165282742_);" d="M3015.76,2459.668
					l6.373,119.406c0.795,14.88,13.091,26.538,27.991,26.538h140.666c15.126,0,27.525-12.003,28.016-27.122l3.826-117.82
					c0.439-13.506-8.793-25.442-22.004-28.291c-34.168-7.368-101.393-17.524-163.611-1.432
					C3023.998,2434.315,3015.044,2446.238,3015.76,2459.668z"/>
				
					<linearGradient id="SVGID_00000149367963275884458030000002935119115823477152_" gradientUnits="userSpaceOnUse" x1="3281.0313" y1="2342.4417" x2="3112.252" y2="2674.2793">
					<stop  offset="0" style="stop-color:#4042E2"/>
					<stop  offset="1" style="stop-color:#4F52FF"/>
				</linearGradient>
				<path style="opacity:0.37;fill:url(#SVGID_00000149367963275884458030000002935119115823477152_);" d="M3026.688,2657.071
					L3026.688,2657.071c1.017,14.695,13.234,26.098,27.964,26.098h134.672c15.702,0,28.342-12.897,28.026-28.596l0,0
					c-0.306-15.259-12.764-27.468-28.026-27.468h-134.672C3038.41,2627.105,3025.567,2640.867,3026.688,2657.071z"/>
			</g>
			<g>
				
					<linearGradient id="SVGID_00000079474131659397004680000013714620616438769539_" gradientUnits="userSpaceOnUse" x1="3039.4231" y1="1937.958" x2="1932.4601" y2="3866.6541">
					<stop  offset="0" style="stop-color:#4042E2"/>
					<stop  offset="1" style="stop-color:#4F52FF"/>
				</linearGradient>
				<path style="fill:url(#SVGID_00000079474131659397004680000013714620616438769539_);" d="M2358.444,2468.745l32.54,785.482
					h277.817l21.057-794.268c0.578-21.831-13.371-41.586-34.287-47.866c-90.337-27.121-180.068-29.781-268.729,10.727
					C2368.937,2431.001,2357.629,2449.078,2358.444,2468.745z"/>
				<path style="fill:#7D97F4;" d="M2383.744,2498.223l3.307,42.709c1.001,12.938,12.176,22.694,25.131,21.94l226.98-13.206
					c11.916-0.694,21.479-10.099,22.369-22.001l2.208-29.502c1.034-13.816-9.897-25.596-23.752-25.596h-232.494
					C2393.612,2472.566,2382.673,2484.386,2383.744,2498.223z"/>
				<path style="fill:#7D97F4;" d="M2393.113,2600.282v15.588c0,12.036,10.022,21.65,22.048,21.149l217.433-9.069
					c11.336-0.472,20.284-9.801,20.284-21.148v-16.535c0-12.073-10.08-21.699-22.141-21.144l-217.432,10.014
					C2402.006,2579.659,2393.113,2588.971,2393.113,2600.282z"/>
			</g>
		</g>
	</g>
</g>
</svg>
